<?xml version="1.0" standalone="no"?>
<!DOCTYPE svg PUBLIC "-//W3C//DTD SVG 20010904//EN"
 "http://www.w3.org/TR/2001/REC-SVG-20010904/DTD/svg10.dtd">
<svg version="1.0" xmlns="http://www.w3.org/2000/svg"
 width="1066.000000pt" height="1280.000000pt" viewBox="0 0 1066.000000 1280.000000"
 preserveAspectRatio="xMidYMid meet">
<metadata>
Created by potrace 1.16, written by Peter Selinger 2001-2019
</metadata>
<g transform="translate(0.000000,1280.000000) scale(0.100000,-0.100000)"
fill="#000000" stroke="none">
<path d="M0 6400 l0 -6400 5330 0 5330 0 0 6400 0 6400 -5330 0 -5330 0 0
-6400z m5480 3925 c-11 -13 -175 -15 -1366 -15 l-1354 0 0 -3905 0 -3905 3490
0 3490 0 0 3905 0 3905 -1805 0 c-1600 0 -1804 2 -1799 15 5 13 217 15 1820
15 l1814 0 0 -3935 0 -3935 -3520 0 -3520 0 0 3935 0 3935 1381 0 c1227 0
1380 -2 1369 -15z m-3781 -518 c10 0 12 -13 6 -61 -4 -34 -8 -69 -9 -79 -1
-17 21 -18 387 -17 l387 0 0 -65 0 -65 -402 -2 -402 -3 -12 -60 c-7 -36 -9
-66 -3 -75 4 -8 9 -10 9 -5 0 6 104 10 290 11 l290 0 0 -463 0 -463 123 -2
c67 0 130 -1 139 0 12 1 19 -8 23 -31 10 -57 -6 -107 -25 -77 -7 10 -10 11
-10 3 0 -10 -184 -13 -885 -13 l-885 0 0 60 0 60 145 0 145 0 2 463 3 462 245
0 244 0 7 35 c4 19 9 50 13 68 l6 32 -375 0 -375 0 0 65 0 65 391 0 c238 0
388 4 384 9 -3 5 -1 12 5 16 5 3 10 12 10 18 0 7 -4 6 -11 -3 -8 -11 -9 -7 -5
19 3 18 6 51 6 72 l0 39 63 -6 c34 -4 68 -7 76 -7z m1947 -139 c2 -3 6 -23 9
-44 3 -21 12 -84 20 -139 16 -105 82 -585 92 -668 5 -44 7 -46 20 -27 8 11 12
29 8 39 -3 10 -1 48 4 82 9 52 34 230 66 464 2 17 12 91 21 165 l17 135 223 0
224 0 0 -728 0 -728 -127 3 -128 3 -2 510 c-2 281 -3 519 -3 529 0 75 -42
-127 -66 -318 -2 -18 -15 -100 -29 -182 -14 -82 -25 -162 -26 -179 0 -27 -2
-28 -10 -10 -8 17 -9 17 -4 -5 5 -28 -31 -292 -46 -328 -9 -22 -12 -23 -130
-20 -135 3 -123 -3 -133 73 -2 17 -6 37 -9 45 -3 8 -15 76 -27 150 -11 74 -28
171 -36 216 -8 44 -12 89 -8 100 5 15 4 16 -5 4 -9 -12 -11 -10 -11 13 0 15
-9 78 -20 140 -10 62 -22 130 -25 152 -3 22 -10 64 -16 92 -6 29 -7 58 -3 65
5 10 4 10 -5 2 -9 -9 -13 -139 -14 -530 l-2 -519 -125 0 -125 0 -3 725 -2 725
215 -1 c119 -1 218 -4 221 -6z m1406 -8 c5 -12 7 -10 8 5 l1 20 9 -20 c5 -11
9 -31 9 -45 1 -20 -1 -22 -9 -10 -5 8 -10 10 -10 5 0 -6 5 -16 11 -22 16 -16
28 -158 17 -201 -22 -85 -32 -110 -70 -177 -73 -126 -93 -154 -105 -150 -7 2
-10 -1 -8 -8 3 -7 -4 -23 -14 -36 -18 -23 -18 -23 -25 85 -4 60 -10 141 -14
179 -3 39 -6 88 -6 111 -1 33 -4 40 -21 40 -18 0 -20 -7 -20 -70 0 -39 -3
-111 -7 -161 -4 -49 -10 -137 -13 -195 -8 -128 -12 -153 -27 -144 -7 4 -8 3
-4 -4 4 -6 -14 -39 -39 -74 -25 -34 -45 -65 -45 -69 0 -3 13 -24 30 -47 16
-22 26 -42 22 -44 -4 -2 -18 -24 -31 -50 -14 -26 -29 -44 -34 -41 -6 3 -7 2
-4 -4 5 -8 -87 -213 -132 -293 -4 -8 -23 -16 -41 -18 l-33 -3 6 63 c3 35 11
122 17 193 6 72 14 137 17 145 3 8 5 24 4 35 0 11 10 130 24 265 14 135 27
268 29 295 16 226 40 441 51 450 7 6 100 10 231 10 185 0 220 -2 226 -15z
m1327 -246 c-1 -140 1 -257 5 -261 3 -4 33 -5 66 -4 44 2 60 -1 60 -11 0 -10
3 -9 10 2 6 9 10 124 10 275 l0 260 140 0 140 0 0 -727 0 -728 -140 0 -140 0
0 330 0 330 -75 0 -75 0 -2 -327 -3 -328 -135 0 -135 0 -3 610 -2 611 52 49
c29 28 57 49 61 47 5 -1 5 7 2 19 -5 14 -3 19 3 15 7 -4 10 3 10 16 -5 76 -4
77 70 80 37 2 71 1 75 0 5 -2 7 -118 6 -258z m831 -464 l0 -730 -135 0 -135 0
0 730 0 730 135 0 135 0 0 -730z m567 670 c-3 -30 -2 -46 2 -36 7 17 22 -72
36 -214 2 -19 15 -116 29 -215 14 -99 31 -224 38 -278 7 -60 16 -96 22 -94 6
2 10 11 8 20 -1 9 4 60 13 114 9 54 18 121 21 148 3 28 21 156 40 285 18 129
36 253 39 274 2 21 7 41 9 44 3 2 102 5 221 6 l215 1 0 -727 c0 -721 0 -728
-20 -728 -11 0 -20 6 -21 13 0 10 -2 10 -6 0 -3 -9 -35 -13 -109 -13 l-104 0
0 526 c0 290 -2 529 -5 532 -3 3 -5 -8 -6 -24 0 -25 -2 -26 -9 -9 -6 15 -7 10
-7 -20 1 -22 -2 -65 -6 -95 -4 -30 -10 -76 -13 -102 -4 -27 -10 -48 -14 -48
-3 0 -7 -15 -7 -32 0 -18 -2 -51 -6 -73 -3 -22 -9 -62 -12 -90 -4 -27 -11 -68
-17 -90 -5 -21 -11 -53 -13 -70 -7 -75 -29 -215 -34 -215 -3 0 -7 -10 -8 -22
-3 -52 -14 -144 -18 -155 -3 -10 -38 -13 -129 -13 -122 0 -126 1 -130 23 -18
85 -36 228 -30 238 4 8 3 9 -4 5 -8 -5 -12 2 -13 21 -3 48 -6 74 -33 221 -15
79 -24 147 -21 152 3 5 1 11 -4 14 -4 3 -12 34 -16 68 -10 72 -8 60 -33 201
-10 59 -22 110 -26 114 -3 3 -6 -232 -6 -524 l0 -531 -125 -1 -125 -2 0 728 0
728 221 0 221 0 -5 -55z m1427 -5 c10 -113 36 -380 61 -635 14 -140 32 -336
40 -435 9 -99 19 -210 24 -248 4 -37 5 -69 3 -72 -3 -3 -63 -5 -133 -5 l-127
0 -6 53 c-3 28 -8 82 -12 120 l-6 67 -82 0 c-87 0 -135 -8 -116 -20 8 -5 9
-37 3 -111 l-8 -104 -139 -3 -139 -3 7 38 c4 21 9 67 11 103 5 70 34 366 66
675 11 105 24 244 29 310 5 66 15 166 21 222 l12 102 41 3 c23 2 132 3 243 3
l201 0 6 -60z m-3420 -555 c52 -46 142 -160 161 -205 48 -112 57 -228 29 -369
-23 -113 -76 -212 -107 -200 -8 3 -18 1 -22 -5 -4 -7 1 -8 12 -4 16 6 16 5 4
-11 -20 -24 -80 -47 -105 -41 -17 5 -18 4 -6 -5 12 -9 6 -11 -28 -7 -24 3 -40
1 -36 -4 3 -5 -11 -9 -30 -9 -20 0 -36 3 -36 8 0 4 -24 8 -53 9 -57 2 -132 25
-132 39 3 46 19 124 26 124 5 0 7 11 3 25 -5 21 -3 25 15 25 41 0 91 28 91 50
0 19 1 20 16 6 8 -9 18 -16 22 -17 44 -5 57 -3 79 14 25 20 25 23 20 106 -5
92 -25 151 -63 191 l-23 25 21 58 c15 42 24 54 31 45 6 -9 7 -8 3 5 -3 10 3
40 13 65 10 26 24 62 31 80 7 17 16 32 21 32 5 0 24 -14 43 -30z m-3789 -796
c44 -15 82 -31 83 -36 2 -4 7 -6 12 -3 4 3 40 -9 80 -25 40 -17 77 -30 82 -30
5 0 37 -13 71 -29 34 -15 92 -41 130 -56 37 -15 67 -31 67 -35 0 -10 -95 -90
-106 -90 -21 0 -104 47 -97 55 5 4 2 5 -5 1 -7 -4 -18 -3 -25 2 -13 11 -139
64 -272 114 -44 17 -93 36 -110 43 -16 7 -41 16 -54 20 -18 6 -20 9 -10 16 8
5 11 9 7 9 -7 0 54 69 62 70 3 0 41 -12 85 -26z m-648 -6 c96 -55 100 -47 -59
-127 -106 -54 -149 -71 -168 -66 -16 4 -20 3 -12 -3 10 -7 5 -13 -20 -22 -151
-55 -218 -76 -218 -69 0 5 -5 9 -11 9 -5 0 -8 -4 -5 -9 3 -5 -3 -11 -14 -14
-21 -5 -44 15 -32 28 4 5 2 5 -4 2 -6 -3 -25 9 -43 27 l-33 34 33 11 c18 6 34
9 37 6 3 -3 10 -1 16 4 6 4 36 16 66 26 80 26 245 92 313 126 32 16 64 26 70
22 6 -3 7 -1 3 5 -6 10 18 31 36 32 4 0 24 -10 45 -22z m273 -922 c19 -2 38
-5 42 -5 4 -1 3 -12 -4 -26 -6 -13 -15 -22 -21 -18 -6 3 -7 1 -3 -5 4 -6 -3
-30 -14 -53 -12 -22 -19 -43 -17 -45 2 -3 142 -5 311 -5 l306 1 0 -310 0 -310
-555 0 -555 0 0 -80 0 -80 711 0 710 0 -3 -52 -3 -53 -708 0 -707 0 0 -67 c0
-38 -1 -70 -2 -73 -2 -3 300 -5 670 -5 l672 0 0 -22 c0 -45 -30 -334 -41 -396
-7 -38 -17 -66 -26 -69 -11 -4 -12 -8 -2 -13 9 -6 8 -18 -5 -51 -43 -106 -90
-129 -263 -129 -61 0 -114 4 -117 8 -3 5 -8 24 -11 42 -3 18 -10 41 -15 51 -6
10 -10 19 -10 21 0 2 55 3 122 4 135 1 160 3 152 15 -3 5 3 23 12 41 10 18 18
42 19 53 6 53 27 181 32 189 4 5 5 32 5 60 -1 34 1 46 7 37 7 -10 9 -7 8 12
-1 15 -5 27 -9 27 -5 0 -8 8 -9 18 0 10 -3 12 -6 5 -4 -10 -146 -13 -664 -13
l-659 0 2 568 3 567 234 3 c253 3 251 2 265 59 3 11 15 42 26 68 19 45 22 47
53 41 17 -3 48 -8 67 -10z m2345 -388 c-4 -18 -10 -37 -13 -43 -8 -12 -8 -25
-16 -310 -10 -343 -24 -577 -36 -589 -5 -5 -9 -21 -9 -36 1 -24 2 -24 9 5 5
17 6 -4 2 -50 -9 -120 -6 -145 19 -164 32 -23 142 -81 155 -81 6 0 17 -33 23
-72 7 -40 19 -93 26 -118 7 -25 15 -54 18 -65 3 -11 14 -54 25 -95 11 -41 25
-104 32 -140 6 -36 22 -117 36 -180 14 -63 28 -126 30 -140 3 -14 11 -50 19
-80 16 -62 56 -285 79 -435 13 -81 16 -212 16 -685 l1 -585 -370 -3 -371 -2 0
1950 0 1950 166 0 166 0 -7 -32z m1101 11 c1 -9 5 -32 9 -50 7 -32 6 -33 -9
-14 -13 17 -15 18 -16 3 0 -9 9 -20 20 -23 11 -3 20 -12 20 -20 0 -7 3 -21 7
-31 6 -15 2 -15 -25 5 -18 12 -29 27 -26 33 4 7 2 8 -5 4 -6 -4 -25 4 -42 18
-36 30 -57 33 -66 9 -5 -14 -8 -12 -14 11 -6 20 -3 36 8 53 14 22 22 24 76 21
46 -2 61 -7 63 -19z m2614 -1164 c0 -1121 -1 -1185 -17 -1186 -17 -1 -17 -2
-1 -6 13 -3 17 -15 16 -47 l0 -43 -39 19 c-21 10 -43 18 -49 18 -6 0 -8 5 -4
12 4 6 3 8 -3 5 -10 -6 -180 56 -243 88 -24 12 -30 22 -28 43 3 41 -10 55 -43
48 -16 -3 -29 -1 -29 4 0 6 6 10 13 10 7 0 8 3 2 8 -5 4 -10 16 -10 27 0 16
-13 25 -60 40 -33 12 -76 28 -95 37 -19 8 -48 20 -65 25 l-30 10 -2 89 c-4
115 -8 133 -38 144 l-25 10 0 204 0 204 89 92 c49 50 91 87 93 83 3 -4 3 -2 1
5 -1 7 15 31 37 53 22 22 40 43 40 46 0 2 27 38 60 78 33 40 60 78 60 83 0 6
6 12 12 14 7 3 3 7 -10 10 -14 4 -31 -1 -47 -14 -14 -10 -30 -16 -36 -12 -8 4
-9 3 -5 -4 4 -7 -10 -19 -35 -31 l-41 -20 6 22 c4 12 20 80 37 152 45 193 59
336 59 610 0 132 -1 243 0 248 0 4 97 7 215 7 l215 0 0 -1185z m1135 -335 c0
-1222 -3 -1531 -13 -1600 -12 -72 -25 -124 -79 -312 -3 -10 -9 -18 -14 -18 -5
0 -9 -7 -9 -16 0 -23 -42 -94 -51 -88 -5 3 -7 -1 -4 -8 2 -7 -7 -26 -21 -43
-18 -22 -23 -24 -18 -10 4 15 3 17 -4 6 -6 -8 -8 -19 -6 -26 3 -6 -3 -18 -12
-26 -16 -12 -17 -12 -11 4 4 11 3 16 -4 12 -6 -4 -8 -13 -5 -21 8 -21 -19 -41
-52 -39 -23 1 -29 -2 -24 -13 4 -11 1 -13 -8 -7 -9 6 -11 4 -6 -4 6 -9 13 -8
27 5 11 9 22 15 25 11 7 -7 -93 -87 -109 -87 -19 0 -38 67 -47 161 -8 83 -39
178 -104 321 -53 116 -76 183 -70 202 4 15 3 17 -4 7 -7 -9 -25 16 -66 95
l-56 107 0 1454 0 1453 373 -2 372 -3 0 -1515z m-2216 532 c-20 -64 -66 -146
-96 -173 -56 -52 -195 -73 -240 -37 -7 5 -16 7 -21 5 -4 -3 -14 -2 -21 2 -21
14 -4 45 60 112 l61 63 15 -32 c15 -31 41 -46 30 -18 -6 14 5 15 36 1 26 -11
47 14 54 64 6 41 6 41 67 59 70 21 75 16 55 -46z m-1040 37 c20 -7 31 -18 31
-30 0 -32 28 -89 43 -89 8 0 20 7 27 15 7 8 18 15 24 15 8 0 7 -3 -1 -8 -7 -4
-9 -13 -5 -19 10 -16 29 -3 41 27 9 25 10 24 75 -42 57 -58 65 -71 64 -102 -1
-31 -3 -33 -14 -18 -10 13 -16 14 -35 5 -45 -22 -99 -23 -163 -3 -68 22 -101
50 -136 119 -20 40 -21 48 -9 85 13 44 19 56 23 56 2 0 17 -5 35 -11z m-4139
-169 l0 -140 180 0 180 0 0 110 0 111 48 -2 c26 -2 50 -7 54 -13 5 -7 8 -7 8
2 0 6 5 12 10 12 6 0 10 -72 10 -195 l0 -195 -65 0 -65 0 0 30 0 30 -490 0
-490 0 0 160 0 160 65 0 65 0 0 -105 0 -105 180 0 180 0 0 140 0 140 65 0 65
0 0 -140z m4920 -417 c0 -75 -52 -147 -141 -196 -25 -13 -55 -31 -68 -38 -19
-13 -29 -10 -97 26 -86 46 -100 59 -52 50 20 -4 50 0 77 9 24 9 55 16 70 16
14 1 40 7 56 15 l30 13 -40 -5 c-22 -3 -65 -12 -95 -21 -81 -23 -149 -16 -249
25 -47 19 -95 44 -106 54 -20 19 -19 19 70 12 50 -5 153 -8 231 -8 l140 0 80
41 c43 23 82 42 87 43 4 1 7 -16 7 -36z m-4640 -680 c0 -118 -17 -420 -26
-468 l-5 -30 431 3 431 2 -3 -72 -3 -73 -401 0 -401 0 15 -22 c8 -13 11 -23 7
-23 -4 0 -3 -6 3 -13 6 -7 23 -46 38 -87 37 -103 116 -261 174 -345 33 -50 47
-79 45 -98 -2 -15 1 -25 5 -22 5 3 7 13 4 23 -3 10 6 4 21 -13 15 -16 46 -50
69 -75 22 -25 69 -70 103 -100 34 -29 60 -56 58 -58 -3 -3 -13 1 -22 9 -16 13
-17 12 -4 -4 8 -10 21 -15 28 -12 8 2 29 -6 46 -19 41 -31 226 -126 246 -126
13 -1 12 -3 -3 -15 -10 -8 -22 -12 -27 -10 -4 3 -11 0 -15 -6 -4 -8 -3 -9 4
-5 17 10 15 -9 -2 -23 -11 -9 -15 -8 -20 5 -3 9 -3 21 0 27 5 9 4 9 -5 1 -9
-9 -10 -17 -2 -31 7 -15 5 -27 -9 -51 l-20 -32 -35 17 c-19 9 -35 20 -35 25 0
4 -8 8 -18 8 -11 0 -57 25 -103 56 -128 86 -159 112 -153 132 4 11 3 13 -3 5
-10 -14 -43 14 -134 117 -82 93 -163 215 -153 231 4 8 3 9 -5 5 -8 -5 -30 31
-67 108 -31 64 -57 122 -58 128 -1 7 -12 32 -24 55 -12 23 -22 47 -22 52 0 5
-5 22 -11 38 l-12 28 -12 -45 c-17 -59 -94 -273 -101 -280 -3 -3 -11 -5 -17
-5 -5 0 -12 -7 -14 -15 -4 -13 -3 -13 6 0 23 32 11 -14 -16 -59 -37 -65 -59
-91 -68 -83 -5 4 -5 1 -1 -6 8 -14 -22 -64 -72 -119 -16 -17 -44 -49 -64 -71
-20 -22 -42 -43 -49 -47 -8 -5 -4 3 9 17 12 13 22 28 22 32 0 5 -10 -4 -22
-20 -13 -16 -22 -32 -21 -36 4 -10 -149 -128 -165 -128 -7 0 -10 -4 -7 -10 6
-9 -10 -14 -42 -13 -7 1 -10 -3 -8 -8 8 -12 -31 -30 -52 -23 -14 5 -15 4 -4
-4 11 -8 10 -12 -8 -21 -12 -7 -27 -9 -33 -5 -6 4 -8 3 -5 -3 3 -5 -14 -19
-38 -31 -25 -12 -45 -18 -45 -13 0 5 -23 35 -52 66 -50 55 -50 56 -27 62 13 4
52 22 87 40 35 18 68 30 74 27 6 -4 8 -3 5 3 -3 5 13 20 36 33 85 47 218 165
297 263 28 34 56 69 63 77 6 8 11 19 9 24 -2 4 4 6 13 2 9 -3 13 -2 10 4 -3 5
17 53 44 107 52 105 102 242 121 335 6 32 11 60 11 63 -1 4 -175 7 -389 8
l-387 2 -3 73 -3 72 396 0 c365 -1 395 -2 396 -18 0 -13 3 -11 9 5 16 39 29
220 31 413 1 102 4 188 6 193 2 4 38 7 79 7 l74 0 0 -107z m380 -15 c14 -11
47 -35 74 -55 28 -20 44 -39 38 -41 -7 -2 -9 -8 -6 -14 4 -7 9 -6 14 1 7 13
31 -4 133 -99 l59 -56 -54 -46 -55 -47 -26 30 c-15 17 -25 36 -24 42 1 6 -4
12 -10 13 -7 1 -18 2 -24 3 -6 0 -8 10 -4 21 4 12 2 20 -5 20 -6 0 -8 -4 -5
-10 11 -19 -12 -10 -31 11 -10 12 -48 44 -84 72 -36 28 -67 54 -70 58 -3 3
-28 22 -57 41 l-52 36 23 21 c32 30 44 26 15 -6 l-24 -26 27 19 c15 10 26 24
24 29 -2 6 3 18 12 27 14 17 17 17 51 -4 20 -12 47 -30 61 -40z m2486 -2403
c8 -56 53 -501 54 -528 0 -4 -420 -6 -932 -5 l-933 3 -2 269 c-1 148 0 273 3
278 3 4 411 7 906 6 892 -3 901 -3 904 -23z m238 16 c3 -4 7 -55 8 -113 2 -58
6 -101 10 -94 4 6 8 -10 8 -36 0 -26 4 -80 10 -120 5 -40 11 -99 13 -131 l4
-58 -36 3 c-40 3 -43 9 -56 163 -8 84 -8 88 -20 199 -7 56 -6 68 5 61 9 -5 11
-4 6 4 -4 6 -12 9 -17 6 -5 -4 -9 12 -9 34 0 22 5 42 13 44 6 3 3 6 -8 7 l-20
1 20 9 c17 7 17 9 3 9 -10 1 -18 6 -18 11 0 12 77 13 84 1z m250 -28 c7 -44
34 -317 41 -413 3 -36 7 -75 9 -87 4 -21 1 -23 -34 -23 -44 0 -44 -2 -55 135
-3 39 -9 85 -12 104 -5 27 -3 32 8 26 12 -7 12 -6 1 7 -9 12 -40 217 -42 281
0 4 18 7 39 7 38 0 39 -2 45 -37z m246 30 c1 -21 20 -205 25 -243 4 -29 3 -40
-3 -32 -7 11 -10 11 -15 -3 -4 -9 -3 -13 2 -10 16 9 20 -8 31 -111 6 -55 13
-112 16 -127 6 -28 5 -28 -37 -25 -33 2 -43 7 -45 22 -1 11 -12 121 -24 245
-11 124 -23 232 -25 239 -2 6 1 12 8 12 8 0 7 4 -3 10 -13 9 -13 11 0 20 18
11 70 13 70 3z m244 -75 c4 -46 10 -94 13 -107 4 -18 3 -22 -7 -16 -9 6 -10 3
0 -14 13 -25 41 -253 38 -306 -3 -34 -4 -36 -38 -33 l-35 3 -12 115 c-6 63
-17 165 -23 225 -6 61 -14 125 -17 144 -5 29 -3 33 11 28 10 -4 16 -1 16 8 0
9 -6 12 -15 9 -9 -4 -15 0 -15 10 0 12 10 16 39 16 l38 0 7 -82z m238 37 c2
-61 4 -79 22 -240 27 -237 27 -247 15 -239 -8 5 -8 1 0 -15 11 -20 9 -21 -28
-21 -31 0 -40 4 -39 18 0 9 -5 60 -11 112 -33 297 -40 385 -31 388 6 2 10 8
10 13 0 6 -4 7 -10 4 -5 -3 -10 1 -10 9 0 12 10 16 40 16 l40 0 2 -45z m198
33 c0 -9 4 -8 10 2 9 13 11 13 20 0 5 -8 10 -21 10 -27 0 -53 37 -414 47 -467
4 -22 2 -27 -8 -21 -11 6 -12 5 -1 -6 20 -22 14 -29 -28 -29 -28 0 -40 4 -40
14 0 8 -7 76 -15 153 -15 135 -14 190 5 178 6 -3 6 5 0 22 -5 15 -11 37 -14
48 -3 11 -4 1 -3 -22 2 -24 -1 -43 -5 -43 -5 0 -9 24 -10 53 -1 28 -2 76 -3
105 -2 45 0 52 16 52 11 0 19 -6 19 -12z m271 -3 c1 -8 2 -27 4 -42 1 -16 7
-64 13 -108 10 -70 18 -153 27 -275 2 -19 6 -54 10 -77 l8 -43 -36 0 c-47 0
-53 12 -61 125 -10 129 -15 180 -26 263 -13 96 -13 132 0 112 7 -10 10 -11 10
-2 0 7 -6 15 -13 18 -7 2 -13 13 -14 24 -2 17 5 20 38 20 27 0 39 -4 40 -15z
m242 -17 c6 -31 25 -228 32 -328 2 -25 6 -61 9 -80 3 -19 7 -54 10 -77 l3 -43
-38 0 c-46 0 -45 -5 -59 170 -6 69 -13 138 -16 154 -4 17 -2 26 4 22 5 -3 4
11 -3 32 -7 20 -15 69 -19 108 l-6 70 39 2 c36 3 39 1 44 -30z m246 -77 c6
-60 14 -142 17 -182 3 -41 9 -98 15 -128 14 -84 12 -141 -6 -141 -10 0 -16 11
-17 33 l-1 32 -4 -33 c-6 -44 -38 -41 -39 3 0 17 -6 68 -12 115 -17 134 -22
208 -12 185 6 -14 9 -16 9 -4 1 8 -4 20 -10 26 -5 5 -12 30 -14 54 -2 24 -7
68 -11 97 l-7 52 40 0 40 0 12 -109z m316 37 c3 -13 14 -90 24 -171 11 -82 21
-151 23 -153 3 -2 14 72 27 164 12 92 26 171 30 175 5 5 30 7 57 5 l49 -3 0
-250 0 -250 -37 -3 -38 -3 -2 173 -3 173 -25 -170 -26 -170 -34 0 -34 0 -27
170 -27 170 -3 -170 -4 -170 -32 -3 -33 -3 0 255 0 256 55 0 c48 0 55 -3 60
-22z m477 -208 c20 -124 37 -238 38 -253 0 -27 -2 -28 -37 -25 -32 3 -38 7
-41 28 -7 67 -10 70 -56 70 l-43 0 -7 -50 c-7 -49 -7 -50 -41 -50 -27 0 -35 4
-35 18 0 18 69 458 76 480 3 9 20 12 56 10 l52 -3 38 -225z m247 216 c32 -17
51 -54 51 -101 0 -33 -2 -35 -35 -35 -30 0 -35 3 -35 24 0 43 -42 70 -68 44
-29 -29 2 -106 58 -145 12 -8 35 -33 51 -56 23 -32 29 -50 29 -94 0 -91 -37
-133 -116 -133 -70 0 -114 45 -114 115 0 33 2 35 35 35 30 0 35 -3 35 -24 0
-24 23 -56 40 -56 30 0 40 15 40 55 0 41 -5 49 -70 115 -74 75 -88 108 -77
177 13 78 100 118 176 79z m181 -91 l0 -105 40 0 39 0 3 103 3 102 38 3 37 3
0 -256 0 -256 -37 3 -38 3 -3 113 -3 112 -39 0 -40 0 0 -115 0 -115 -40 0 -40
0 0 255 0 255 40 0 40 0 0 -105z m300 -150 l0 -255 -40 0 -40 0 0 255 0 255
40 0 40 0 0 -255z m175 233 c2 -13 14 -90 25 -173 12 -82 22 -151 24 -152 2
-2 14 74 27 169 l24 173 55 0 55 0 0 -250 0 -250 -35 0 -35 0 -5 165 -5 165
-25 -165 -25 -165 -32 -3 c-37 -4 -33 -14 -68 205 l-23 148 -1 -177 -1 -178
-35 0 -35 0 0 255 0 255 55 0 c49 0 55 -3 60 -22z m481 -228 c22 -135 39 -248
37 -252 -2 -5 -20 -8 -38 -8 -36 0 -40 6 -47 70 -3 22 -8 25 -50 28 -47 3 -48
2 -48 -25 0 -58 -10 -73 -46 -73 -23 0 -34 5 -34 14 0 17 67 439 75 474 5 21
10 23 58 20 l52 -3 41 -245z m359 -92 l0 -163 -25 0 -25 0 -3 163 -2 162 27 0
28 0 0 -162z m114 125 c5 -21 16 -63 25 -93 l14 -55 1 93 c1 92 1 92 26 92
l25 0 -2 -162 c-3 -149 -5 -163 -22 -166 -28 -6 -35 6 -66 119 l-28 104 -1
-113 c-1 -112 -1 -113 -23 -110 -23 3 -23 6 -26 166 l-2 162 34 0 c32 0 36 -3
45 -37z m171 -87 c0 -137 4 -156 30 -156 25 0 32 38 30 158 -2 128 -4 122 25
122 l24 0 -2 -146 c-2 -140 -3 -147 -26 -165 -32 -27 -77 -24 -106 6 -24 23
-25 29 -25 165 l0 140 25 0 25 0 0 -124z"/>
<path d="M1615 9292 l-470 -2 2 -73 1 -72 472 0 472 0 0 73 c0 40 -1 74 -3 75
-2 1 -215 1 -474 -1z"/>
<path d="M1615 9052 l-470 -2 3 -55 c3 -47 1 -55 -14 -55 -9 0 -15 -3 -11 -6
3 -4 222 -7 486 -8 l479 -1 4 63 c2 35 1 65 -2 65 -3 1 -216 1 -475 -1z"/>
<path d="M1173 8842 c-19 -3 -22 -10 -25 -68 -2 -36 -1 -68 1 -70 6 -5 936 -5
942 0 2 2 2 34 1 70 l-4 66 -446 2 c-246 2 -457 2 -469 0z"/>
<path d="M1615 8612 l-470 -2 0 -73 c0 -44 5 -77 13 -85 7 -8 12 -9 12 -3 0 8
133 11 460 9 300 -2 461 0 462 7 2 6 1 42 -2 80 l-5 70 -470 -3z"/>
<path d="M8931 9424 c9 -11 9 -14 0 -14 -7 0 -9 -5 -5 -12 5 -7 6 -31 5 -53
-6 -67 -9 -116 -14 -200 -2 -44 -9 -150 -16 -235 -11 -159 -14 -208 -12 -225
1 -9 127 -13 135 -4 6 6 -52 676 -61 718 -5 22 -15 35 -26 37 -15 2 -16 0 -6
-12z"/>
<path d="M1110 6998 l0 -88 485 0 485 0 0 85 0 85 -485 2 -485 3 0 -87z"/>
<path d="M1106 6820 c-1 -3 0 -40 2 -83 l4 -77 481 2 482 3 3 77 3 78 -487 2
c-267 2 -487 1 -488 -2z"/>
</g>
</svg>
